<svg xmlns="http://www.w3.org/2000/svg" width="93.79" height="65.31" viewBox="0 0 93.79 65.31">
  <defs>
    <style>
      .a {
        isolation: isolate;
      }

      .b, .k {
        fill: #c547cf;
      }

      .c {
        fill: #971ca5;
      }

      .d, .h, .l {
        fill: #eed4f1;
      }

      .e {
        fill: #bf9bc4;
      }

      .f {
        fill: #ffc50a;
      }

      .g {
        fill: #ff900a;
      }

      .h, .i {
        mix-blend-mode: multiply;
      }

      .j {
        fill: #c33bcf;
      }

      .k, .l {
        mix-blend-mode: screen;
      }
    </style>
  </defs>
  <title>spermatozoa</title>
  <g class="a">
    <g>
      <g>
        <g>
          <path class="b" d="M61.85,37.25S62,27,61.42,20.93,58.57,4,47,1.68C39.81,1.07,33,8.84,24.13,17.13s-16,7-20.1,2.82S-.9,9.32,1.43,5.53C.72,13.2,2.92,19.11,11.09,21.43c4.27.52,8.17-1.68,18.13-11.64s16-10.45,21-9.1S61.78,7.6,63.07,22.58c.36,7.66.76,14,.76,14A5.52,5.52,0,0,0,61.85,37.25Z"/>
          <path class="c" d="M1.58,5.54C.78,14.2,3.81,19.21,11.11,21.29c4.43.53,8.46-2.07,18-11.6,4.62-4.61,8.67-7.5,12.4-8.82A13.81,13.81,0,0,1,50.23.56c3.41.92,11.52,4.91,13,22,.35,7.57.75,13.94.76,14v.14l-.14,0a5.4,5.4,0,0,0-1.92.64l-.23.13v-.26c0-.1.15-10.34-.43-16.3C60.21,9.94,55.39,3.51,47,1.83c-6-.52-11.74,4.93-19,11.83-1.22,1.16-2.47,2.36-3.77,3.57-4.13,3.85-8.15,5.92-11.93,6.13A10.68,10.68,0,0,1,3.92,20C0,16-1.18,9.5,1.31,5.45l.33-.54ZM63.67,36.45c-.06-1-.42-6.9-.75-13.86C61.47,5.69,53.51,1.75,50.16.85,45.35-.45,39.5-.25,29.33,9.9,19.7,19.51,15.61,22.13,11,21.58,3.87,19.53.65,14.5,1.23,6.2c-2,4-.75,9.92,2.91,13.64C6.56,22.31,13.35,27,24,17c1.3-1.21,2.55-2.41,3.77-3.57C35.06,6.5,40.8,1,47,1.54c8.48,1.69,13.52,8.38,14.58,19.38C62.09,26.36,62,35.37,62,37A5.81,5.81,0,0,1,63.67,36.45Z"/>
        </g>
        <g>
          <path class="d" d="M67.71,46.55s-1.3,2.38-2.72.07a39.86,39.86,0,0,1-3.43-7.37c-.43-1.49,0-2.18,1.26-2.52s2.27-.23,2.35,1.16A6.9,6.9,0,0,0,67.59,42C68.93,43.34,69.38,44.06,67.71,46.55Z"/>
          <path class="e" d="M62.79,36.58a2.34,2.34,0,0,1,2,.08,1.49,1.49,0,0,1,.55,1.21,6.73,6.73,0,0,0,2.36,4.07c1.4,1.34,1.81,2.12.3,4.47l-.14.22s-.63,1.17-1.55,1.16c-.51,0-1-.37-1.42-1.08a39.78,39.78,0,0,1-3.45-7.41,2.24,2.24,0,0,1,.07-1.9h0A2.09,2.09,0,0,1,62.79,36.58Zm4.79,9.89c1.65-2.46,1.18-3.09-.1-4.32A7,7,0,0,1,65,37.89a1.2,1.2,0,0,0-.42-1,2.11,2.11,0,0,0-1.74,0,1.82,1.82,0,0,0-1.13.68,2,2,0,0,0,0,1.66,39.33,39.33,0,0,0,3.41,7.34c.38.62.78.94,1.17.94.57,0,1-.62,1.21-.89Z"/>
        </g>
        <g>
          <g>
            <path class="f" d="M66,45.75s-.28.62,0,.81.93-.47,1.42-1.4.57-1.41.28-1.6S66.69,44.37,66,45.75Z"/>
            <path class="g" d="M67.75,43.44c.46.3.16,1-.23,1.79a5.6,5.6,0,0,1-.29.5c-.4.62-1,1.2-1.34,1s-.1-.92-.06-1c.26-.5.51-.93.74-1.28C67.11,43.56,67.47,43.26,67.75,43.44Zm-.49,1.66c.43-.83.53-1.28.33-1.41,0,0-.2,0-.77.87-.22.34-.46.77-.72,1.25-.07.16-.18.54,0,.63s.46-.15.93-.87A5,5,0,0,0,67.26,45.1Z"/>
          </g>
          <g>
            <path class="f" d="M65.94,45.86s-.92.29-.19-1,1.65-2.1,1.68-1.35A8.28,8.28,0,0,0,65.94,45.86Z"/>
            <path class="g" d="M67.33,43.14c.11,0,.23.12.25.41v.06l0,0a6.79,6.79,0,0,0-.81,1,7.8,7.8,0,0,0-.65,1.21l0,.06L66,46s-.4.12-.58-.11-.09-.54.22-1.06l.19-.31C66,44.27,66.83,43,67.33,43.14Zm-.85,1.4a7.34,7.34,0,0,1,.8-1,.18.18,0,0,0,0-.08h0c-.09,0-.57.3-1.19,1.25l-.19.31c-.34.58-.25.72-.24.72s.12,0,.2,0A8.22,8.22,0,0,1,66.48,44.54Z"/>
          </g>
          <g>
            <path class="f" d="M65.75,44.91s-.46.41-.73,0,.41-1.35.91-1.9,1.31-.32,1.08.26A3.46,3.46,0,0,0,65.75,44.91Z"/>
            <path class="g" d="M65.82,43A.93.93,0,0,1,67,42.69a.52.52,0,0,1,.19.68l0,0,0,0A3.23,3.23,0,0,0,65.89,45v0l0,0a.88.88,0,0,1-.6.23A.5.5,0,0,1,64.9,45c-.19-.25-.08-.69.3-1.29A6.28,6.28,0,0,1,65.82,43Zm1.06.26a.22.22,0,0,0-.08-.27.65.65,0,0,0-.76.21,6,6,0,0,0-.59.76c-.35.54-.39.85-.31,1a.21.21,0,0,0,.15.09.56.56,0,0,0,.35-.14A3.51,3.51,0,0,1,66.88,43.21Z"/>
          </g>
          <g>
            <path class="f" d="M65.09,44.19a.38.38,0,0,1-.55-.16c-.17-.38.3-1.15.87-1.58s1.19-.11,1,.23A3.07,3.07,0,0,0,65.09,44.19Z"/>
            <path class="g" d="M65.33,42.33a.92.92,0,0,1,1.13-.08.39.39,0,0,1,.09.5l0,0-.05,0c-.4.14-.8.61-1.23,1.44l0,0,0,0a.63.63,0,0,1-.46.06.5.5,0,0,1-.3-.29,1.21,1.21,0,0,1,.23-1A3,3,0,0,1,65.33,42.33Zm1,.23a.1.1,0,0,0,0-.09.63.63,0,0,0-.75.1,2.78,2.78,0,0,0-.62.67.93.93,0,0,0-.21.73.22.22,0,0,0,.12.13.29.29,0,0,0,.19,0A3.11,3.11,0,0,1,66.3,42.57Z"/>
          </g>
          <g>
            <path class="f" d="M64.71,43.32s-.42.27-.6-.12.49-1.17,1-1.57,1.34,0,.77.57A1.82,1.82,0,0,0,64.71,43.32Z"/>
            <path class="g" d="M65,41.51a.84.84,0,0,1,1,0c.18.16.28.46-.06.83l0,0h0a1.44,1.44,0,0,0-.83.65,3.82,3.82,0,0,0-.22.4l0,0,0,0a.69.69,0,0,1-.51.09.48.48,0,0,1-.31-.28c-.1-.21,0-.5.19-.85A4.47,4.47,0,0,1,65,41.51Zm-.16,1.31a1.74,1.74,0,0,1,.95-.75l.06-.08c.12-.19,0-.27,0-.29a.55.55,0,0,0-.66,0,4.12,4.12,0,0,0-.76.83c-.16.25-.22.45-.17.56a.2.2,0,0,0,.12.12.37.37,0,0,0,.24,0A3.8,3.8,0,0,1,64.82,42.82Z"/>
          </g>
          <g>
            <path class="f" d="M64.19,42.61a.36.36,0,0,1-.5-.28c-.11-.44.73-1.36,1.33-1.5s.94.44.5.62S64.85,41.67,64.19,42.61Z"/>
            <path class="g" d="M65,40.69a.74.74,0,0,1,.79.24.43.43,0,0,1-.2.66l-.11,0c-.35.14-.59.24-1.16,1.06l0,0,0,0a.57.57,0,0,1-.44,0,.53.53,0,0,1-.26-.37,1,1,0,0,1,.19-.68h0A2.47,2.47,0,0,1,65,40.69Zm.38.67.1,0a.19.19,0,0,0,.09-.07.13.13,0,0,0,0-.14.45.45,0,0,0-.48-.12,2.16,2.16,0,0,0-1.07.87.7.7,0,0,0-.16.45.25.25,0,0,0,.11.17.26.26,0,0,0,.16,0C64.7,41.62,65,41.51,65.37,41.36Z"/>
          </g>
          <g>
            <path class="f" d="M63.73,42s-1.14-.23.07-1.17,1.77-.37,1.45,0C64.53,40.88,64.05,41.55,63.73,42Z"/>
            <path class="g" d="M63.72,40.71c.83-.65,1.39-.63,1.64-.4a.44.44,0,0,1,0,.63l0,0h-.06c-.67,0-1.14.7-1.41,1.09l-.06.08-.09,0a.82.82,0,0,1-.57-.39.56.56,0,0,1,.09-.54h0A2.12,2.12,0,0,1,63.72,40.71Zm1.46,0a.13.13,0,0,0,0-.17c-.13-.12-.58-.11-1.26.42a1.9,1.9,0,0,0-.43.43h0a.29.29,0,0,0-.06.26.45.45,0,0,0,.27.19A2.3,2.3,0,0,1,65.18,40.7Z"/>
          </g>
          <g>
            <path class="f" d="M63.37,41.28s-.87-.12-.23-.85,2.31-1.09,1.91-.16A2.48,2.48,0,0,0,63.37,41.28Z"/>
            <path class="g" d="M63,40.33c.51-.58,1.61-.94,2-.67.12.08.29.26.12.67l0,.09H65a2.37,2.37,0,0,0-1.55,1l-.05.07h-.09a.75.75,0,0,1-.55-.35.58.58,0,0,1,.09-.56h0Zm1.91-.21c0-.16,0-.2,0-.22a1.89,1.89,0,0,0-1.65.62l-.12.15h0a.34.34,0,0,0-.07.28.41.41,0,0,0,.25.16A2.74,2.74,0,0,1,64.95,40.12Z"/>
          </g>
          <g>
            <path class="f" d="M63.07,40.54s-.84-.32-.08-1,2.13-.62,1.88.14A2.32,2.32,0,0,0,63.07,40.54Z"/>
            <path class="g" d="M62.88,39.43a1.79,1.79,0,0,1,1.91-.37.54.54,0,0,1,.21.67l0,.12h-.12a2.18,2.18,0,0,0-1.66.8l-.07.09-.11,0a.83.83,0,0,1-.47-.45.6.6,0,0,1,.09-.53h0A1.44,1.44,0,0,1,62.88,39.43Zm1.86.1a.23.23,0,0,0-.12-.22,1.52,1.52,0,0,0-1.55.34,1.09,1.09,0,0,0-.19.22h0a.32.32,0,0,0-.06.27.46.46,0,0,0,.2.22A2.55,2.55,0,0,1,64.75,39.53Z"/>
          </g>
          <g>
            <path class="f" d="M62.82,39.75a.47.47,0,0,1-.22-.82,1.39,1.39,0,0,1,1.74-.43c.36.31.16.54.16.54A2.08,2.08,0,0,0,62.82,39.75Z"/>
            <path class="g" d="M62.48,38.83a1.78,1.78,0,0,1,1.2-.64,1,1,0,0,1,.76.19c.41.35.24.66.2.72l-.07.09h-.07a1.93,1.93,0,0,0-1.55.66l-.06.08-.1,0a.76.76,0,0,1-.47-.4.61.61,0,0,1,.1-.55h0Zm1.92.05c0-.06,0-.15-.16-.28a.74.74,0,0,0-.54-.12,1.47,1.47,0,0,0-1,.53l-.06.08h0a.33.33,0,0,0-.07.29.38.38,0,0,0,.19.18A2.2,2.2,0,0,1,64.41,38.89Z"/>
          </g>
          <g>
            <path class="f" d="M62.5,39.08s-.65-.54.17-1.09,1.77-.29,1.58.34A1.81,1.81,0,0,0,62.5,39.08Z"/>
            <path class="g" d="M62.58,37.87a1.46,1.46,0,0,1,1.6-.15.57.57,0,0,1,.21.66l0,.16-.15-.07a1.69,1.69,0,0,0-1.54.65l0,0-.09.16-.14-.12a.74.74,0,0,1-.18-1A1.23,1.23,0,0,1,62.58,37.87Zm1.54.27A.27.27,0,0,0,64,38a1.21,1.21,0,0,0-1.26.16,1,1,0,0,0-.28.26.4.4,0,0,0,0,.46A2.15,2.15,0,0,1,64.12,38.15Z"/>
          </g>
        </g>
        <g>
          <path class="b" d="M67.19,49.8s-.92-1.55.71-3.46a3.5,3.5,0,0,1,3.43-1.41A10.51,10.51,0,0,0,67.19,49.8Z"/>
          <path class="c" d="M67.79,46.25a3.62,3.62,0,0,1,3.58-1.46l.37.1-.34.17a9.51,9.51,0,0,0-3.2,3.21,13.89,13.89,0,0,0-.88,1.58l-.12.25-.14-.24a3,3,0,0,1,.32-3.09A5,5,0,0,1,67.79,46.25ZM68,48.12A10.53,10.53,0,0,1,70.89,45,3.55,3.55,0,0,0,68,46.44a4.77,4.77,0,0,0-.38.51,2.85,2.85,0,0,0-.43,2.5A13.83,13.83,0,0,1,68,48.12Z"/>
        </g>
        <g>
          <path class="b" d="M78.8,61.44c4.31,0,8.44.5,9.93-1.55s-.82-4.07-3-6.65C83.72,50.95,82,48,84,46.83,92.51,53.12,94.85,60,93.09,62.61c-3.42,4.26-12.62,2.16-17.16.77C75.81,62.52,76.18,61.41,78.8,61.44Z"/>
          <path class="c" d="M83.9,46.71l.09,0,.08.06c4.9,3.61,7.29,7,8.43,9.27,1.4,2.74,1.68,5.22.76,6.65l0,.07c-1.47,1.83-5.67,4.37-17.32.82l-.09,0v-.1A1.67,1.67,0,0,1,76,62.25h0c.42-.65,1.36-1,2.8-1l1.88,0c3.59.09,6.7.16,7.93-1.52s-.26-3.34-2.15-5.46l-.89-1c-1.62-1.89-3.35-4.46-2.36-6A2,2,0,0,1,83.9,46.71Zm5,13.27c-1.32,1.8-4.5,1.73-8.18,1.64l-1.88,0c-1.89,0-2.83.56-2.74,1.69,4,1.21,13.51,3.49,16.9-.74l0-.06c1.61-2.5-.64-9.25-9-15.46a1.66,1.66,0,0,0-.5.48c-.94,1.46,1.06,4.16,2.33,5.65l.89,1C88.54,56.23,90.13,58,89,59.83Z"/>
        </g>
        <g>
          <path class="d" d="M84,46.83c-2,1.19-.25,4.11,1.72,6.41,2.22,2.58,4.54,4.61,3,6.65s-5.62,1.59-9.93,1.55c-2.63,0-3,1.08-2.88,1.95-1.59-.48-2.61-.88-2.61-.88-2.18-1-7-2.59-7.15-8.2s6.5-15.09,16.28-8.54C83,46.12,83.49,46.47,84,46.83Z"/>
          <path class="e" d="M74.25,43.57c2.63-.55,5.42.15,8.28,2.07.49.33,1,.68,1.53,1.08l.18.13-.19.11a1.69,1.69,0,0,0-.58.53c-.94,1.46,1.06,4.16,2.33,5.65l.89,1c1.9,2.13,3.53,4,2.17,5.83s-4.5,1.73-8.18,1.64l-1.88,0c-1.95,0-2.88.59-2.73,1.78l0,.23-.22-.07c-1.58-.48-2.61-.88-2.63-.88l-.48-.21c-2.3-1-6.58-2.8-6.75-8.13a11.24,11.24,0,0,1,1.9-6.11h0A10.11,10.11,0,0,1,74.25,43.57ZM76,62.25c.42-.65,1.36-1,2.8-1l1.88,0c3.59.09,6.7.16,7.93-1.52s-.26-3.34-2.15-5.46l-.89-1c-1.62-1.89-3.35-4.46-2.36-6a1.9,1.9,0,0,1,.49-.51c-.47-.34-.91-.65-1.35-.94-2.8-1.87-5.51-2.55-8.06-2a9.82,9.82,0,0,0-6.14,4.5h0a10.91,10.91,0,0,0-1.85,5.94c.17,5.13,4.18,6.84,6.57,7.86l.48.21s.95.36,2.4.81A1.59,1.59,0,0,1,76,62.25Z"/>
        </g>
        <path class="h" d="M82.45,45.76c.53.36,1,.71,1.52,1.07-2,1.19-.25,4.11,1.72,6.41,2.22,2.58,4.54,4.61,3,6.65s-5.62,1.59-9.93,1.55c-2.63,0-3,1.08-2.88,1.95-1.59-.48-2.61-.88-2.61-.88l-.17-.08a1.75,1.75,0,0,0,1.26-.73c.74-1.15-.75-2.12-1.53-2.79a10.27,10.27,0,0,1-2-1.95A5.84,5.84,0,0,1,70,53.74c.07-2.33,1.25-4.11,2.43-6,.73-1.18-.4-2-1.54-1.72a5,5,0,0,0-2.06,1.17C71.64,43.75,76.47,41.76,82.45,45.76Z"/>
        <g>
          <path class="f" d="M84.54,61.6A14.12,14.12,0,0,1,75,58.28c-4.07-3.69-2.52-7.47.16-8.74s6.53-.11,10.52,3.7S91.39,61,84.54,61.6Z"/>
          <path class="g" d="M75.11,49.4c2.84-1.35,6.83,0,10.69,3.73C87.94,55.18,90.23,58,89,60c-.63,1-2.12,1.58-4.44,1.79a14.4,14.4,0,0,1-9.64-3.36c-3.8-3.44-2.35-6.4-1.82-7.22h0A4.88,4.88,0,0,1,75.11,49.4Zm10.48,3.94c-3.76-3.6-7.63-5-10.36-3.68a4.61,4.61,0,0,0-1.9,1.65h0C72,53.39,72.66,56,75.11,58.17a14.09,14.09,0,0,0,9.42,3.29c2.21-.2,3.63-.75,4.21-1.65C89.62,58.43,88.5,56.13,85.59,53.35Z"/>
        </g>
        <g class="i">
          <path class="f" d="M85.69,53.24c3.21,3.07,4.93,6.21,1.93,7.64A2.24,2.24,0,0,0,87.55,58c-2.27-3.48-7.73-7-10.62-6-2.18.79-3.82,3.88-2.27,5.9-3.63-3.59-2.09-7.18.51-8.41S81.7,49.42,85.69,53.24Z"/>
        </g>
        <g class="i">
          <path class="j" d="M93.09,62.61A6.8,6.8,0,0,1,89,64.86c1.4-.53,5.53-2.44,3.76-6.11-2.12-4.39-3.71-3.48-2.53-.4s-2.5,4.35-7,4.2-6.21,1-3.08,1.91c-1.59-.33-3.05-.73-4.21-1.08-.12-.87.25-2,2.88-1.95,4.31,0,8.44.5,9.93-1.55s-.82-4.07-3-6.65C83.72,50.95,82,48,84,46.83,92.51,53.12,94.85,60,93.09,62.61Z"/>
        </g>
      </g>
      <path class="k" d="M92.23,62.73a11.74,11.74,0,0,1-11.14,1.48c-.19-.07.14-.16.22-.14,3.78.94,7.43.9,10.74-1.38C92.09,62.66,92.3,62.67,92.23,62.73Z"/>
      <path class="l" d="M67.46,53c.15,4,1.94,7.26,5.91,8.66.11,0-.1.09-.15.08A8.39,8.39,0,0,1,67,53C67,52.9,67.46,52.88,67.46,53Z"/>
      <path class="k" d="M58.61,8.39C63.7,15.51,63,23.83,62.73,32.13c0,.07-.23.08-.23,0a109.46,109.46,0,0,0-.17-13,24.88,24.88,0,0,0-4-10.75C58.3,8.36,58.56,8.32,58.61,8.39Z"/>
      <path class="k" d="M19.15,20.14C16.7,21.58,14.6,23,11.66,22.9a12,12,0,0,1-7.44-3.55c-.13-.12.25-.18.34-.11a14.59,14.59,0,0,0,6,3.28c3.22.76,5.75-1,8.44-2.44C19.05,20.06,19.25,20.08,19.15,20.14Z"/>
    </g>
  </g>
</svg>
